<svg class="css-1j8o68f" viewBox="0 0 410 112" height="112" width="410"><defs id="SvgjsDefs2061"></defs><g fill="#fde9c9" transform="matrix(1,0,0,1,0,0)" id="SvgjsG2062"><rect ry="10" rx="10" height="112" width="410" xmlns="http://www.w3.org/2000/svg"></rect></g><g fill="#343434" transform="matrix(0.8993161951219063,0,0,0.8993161951219063,11.007139943255618,11.006917810673395)" id="SvgjsG2063"><path d="M86.674,33.332H66.66V13.327c-11.106-4.604-23.04-4.265-33.334,0v20.005h-20c-4.603,11.107-4.264,23.039,0,33.336h20v20.007  c11.107,4.603,23.041,4.264,33.334,0V66.668h20.014C91.276,55.558,90.938,43.625,86.674,33.332z M33.326,56.668v3.333H18.053  c-1.863-6.563-1.863-13.445,0-20.002h31.94v-6.667h-10V18.055c3.255-0.922,6.614-1.389,10.02-1.389c3.391,0,6.732,0.466,9.98,1.387  v25.28c0,1.841-1.494,3.333-3.333,3.333H43.327C37.806,46.667,33.326,51.144,33.326,56.668z M81.946,60.001H49.994v6.667h10v15.279  c-3.255,0.921-6.611,1.387-10.019,1.387c-3.389,0-6.732-0.466-9.98-1.387V56.668c0-1.844,1.493-3.334,3.333-3.334H56.66  c5.521,0,10-4.476,10-10v-3.335h15.286C83.809,46.56,83.809,53.441,81.946,60.001z" xmlns="http://www.w3.org/2000/svg"></path><circle r="3.333" cy="25" cx="48.326" xmlns="http://www.w3.org/2000/svg"></circle><circle r="3.333" cy="75" cx="51.659" xmlns="http://www.w3.org/2000/svg"></circle></g><g fill="#343434" transform="matrix(1.8351614950779866,0,0,1.8351614950779866,103.85188285684495,7.482243055810798)" id="SvgjsG2064"><path d="M9.04 31.2 l0 8.8 l-4.6 0 l0 -26.64 l17.76 0 l0 4.6 l-13.16 0 l0 8.64 l13.16 0 l0 4.6 l-13.16 0 z M41.079 22.36 l0 4.24 l4.2 0 l0 -4.24 l-4.2 0 z M32.079 40 l0 -9 l4.4 0 l0 -8.84 l4.4 0 l0 -8.8 l4.6 0 l0 8.8 l4.4 0 l0 8.84 l4.4 0 l0 9 l-4.6 0 l0 -8.8 l-13 0 l0 8.8 l-4.6 0 z M64.158 40 l0 -26.64 l4.6 0 l0 22.04 l13.16 0 l0 4.6 l-17.76 0 z M96.39699999999999 17.96 l0 22.04 l-4.6 0 l0 -26.64 l13.36 0 l0 4.4 l4.4 0 l0 9 l-4.4 0 l0 4.44 l-4.56 0 l0 -4.6 l4.36 0 l0 -8.64 l-8.56 0 z M119.43599999999999 40 l0 -26.64 l4.44 0 l0 26.64 l-4.44 0 z M146.95499999999998 17.96 l-8.6 0 l0 8.64 l8.6 0 l0 -8.64 z M138.355 31.2 l0 8.8 l-4.6 0 l0 -26.64 l13.4 0 l0 4.4 l4.4 0 l0 9 l-4.4 0 l0 4.24 l4.4 0 l0 4.4 l4.4 0 l0 4.6 l-4.6 0 l0 -4.4 l-4.4 0 l0 -4.4 l-8.6 0 z"></path></g></svg>